<svg width="511" height="73" viewBox="0 0 511 73" fill="none" xmlns="http://www.w3.org/2000/svg">
<path d="M24.6485 72V7.72799H0.9845V0.959999H56.0885V7.72799H32.4245V72H24.6485ZM59.6143 72V14.88H97.9663V20.976H67.2463V65.904H98.3983V72H59.6143ZM64.4143 45.792V39.744H93.9823V45.792H64.4143ZM101.644 72L123.004 14.88H134.044L155.5 72H147.628L127.9 18.24H129.052L109.276 72H101.644ZM113.356 54.192L115.132 48.048H141.916L143.644 54.192H113.356ZM165.369 72V14.88H174.489L195.801 58.08H194.361L215.433 14.88H224.601V72H217.353V21.456H219.273L198.297 63.984H191.625L170.265 21.504H172.569V72H165.369Z" fill="#000435"/>
<path d="M257.336 72V7.72799H233.672V0.959999H288.776V7.72799H265.112V72H257.336ZM292.302 72V15.888C294.702 15.44 297.294 15.056 300.078 14.736C302.862 14.416 305.806 14.256 308.91 14.256C317.038 14.256 323.086 15.664 327.054 18.48C331.054 21.264 333.054 25.6 333.054 31.488C333.086 35.328 332.126 38.544 330.174 41.136C328.254 43.696 325.422 45.632 321.678 46.944C317.966 48.256 313.406 48.912 307.998 48.912C306.59 48.912 305.214 48.896 303.87 48.864C302.558 48.8 301.262 48.704 299.982 48.576V72H292.302ZM328.926 72L307.998 45.216H316.59L337.806 72H328.926ZM307.998 43.152C314.238 43.152 318.75 42.208 321.534 40.32C324.318 38.4 325.71 35.488 325.71 31.584C325.71 27.456 324.414 24.496 321.822 22.704C319.262 20.912 315.134 20.016 309.438 20.016C307.55 20.016 305.854 20.08 304.35 20.208C302.878 20.336 301.422 20.544 299.982 20.832V42.816C301.486 42.912 302.798 42.992 303.918 43.056C305.038 43.12 306.398 43.152 307.998 43.152ZM349.114 72V14.88H356.89V72H349.114ZM366.582 72L387.942 14.88H398.982L420.438 72H412.566L392.838 18.24H393.99L374.214 72H366.582ZM378.294 54.192L380.07 48.048H406.854L408.582 54.192H378.294ZM430.114 72V14.88H437.89V65.616H467.41V72H430.114ZM488.045 72.72C485.549 72.72 482.957 72.528 480.269 72.144C477.613 71.76 475.133 71.2 472.829 70.464V64.08C474.557 64.592 476.301 65.024 478.061 65.376C479.853 65.728 481.597 66 483.293 66.192C484.989 66.352 486.589 66.432 488.093 66.432C491.421 66.432 494.141 66.064 496.253 65.328C498.397 64.56 499.965 63.456 500.957 62.016C501.981 60.544 502.493 58.768 502.493 56.688C502.493 54.928 502.141 53.44 501.437 52.224C500.765 51.008 499.597 49.968 497.933 49.104C496.269 48.24 493.981 47.472 491.069 46.8L488.045 46.128C482.317 44.848 478.157 42.96 475.565 40.464C473.005 37.936 471.725 34.544 471.725 30.288C471.725 27.088 472.525 24.288 474.125 21.888C475.757 19.456 478.221 17.568 481.517 16.224C484.845 14.848 489.053 14.16 494.141 14.16C496.445 14.16 498.749 14.304 501.053 14.592C503.389 14.88 505.501 15.28 507.389 15.792V22.224C505.245 21.616 503.069 21.168 500.861 20.88C498.685 20.56 496.477 20.4 494.237 20.4C490.717 20.4 487.869 20.784 485.693 21.552C483.517 22.32 481.917 23.408 480.893 24.816C479.901 26.224 479.405 27.92 479.405 29.904C479.405 32.56 480.173 34.624 481.709 36.096C483.277 37.536 486.205 38.768 490.493 39.792L493.517 40.464C497.453 41.328 500.637 42.448 503.069 43.824C505.501 45.2 507.277 46.912 508.397 48.96C509.549 51.008 510.125 53.44 510.125 56.256C510.125 59.616 509.293 62.528 507.629 64.992C505.965 67.424 503.485 69.328 500.189 70.704C496.925 72.048 492.877 72.72 488.045 72.72Z" fill="#02CCFE"/>
</svg>
